<?xml version="1.0" encoding="UTF-8" standalone="no"?>
<svg width="32" height="32" viewBox="0 0 32 32" fill="none" xmlns="http://www.w3.org/2000/svg">
  <!-- Background gradient circle -->
  <circle cx="16" cy="16" r="16" fill="url(#paint0_radial)"/>
  
  <!-- Eye shape -->
  <path d="M16 8C9.5 8 4 16 4 16C4 16 9.5 24 16 24C22.5 24 28 16 28 16C28 16 22.5 8 16 8Z" fill="url(#paint1_linear)" stroke="#FFFFFF" stroke-width="1.5"/>
  
  <!-- Iris -->
  <circle cx="16" cy="16" r="5" fill="url(#paint2_radial)"/>
  
  <!-- Pupil -->
  <circle cx="16" cy="16" r="2" fill="#000000"/>
  
  <!-- Star/sparkle -->
  <path d="M16 10L16.8 13.2L20 14L16.8 14.8L16 18L15.2 14.8L12 14L15.2 13.2L16 10Z" fill="white"/>
  
  <!-- Gradients definitions -->
  <defs>
    <radialGradient id="paint0_radial" cx="0" cy="0" r="1" gradientUnits="userSpaceOnUse" gradientTransform="translate(16 16) rotate(90) scale(16)">
      <stop offset="0" stop-color="#8A2BE2"/> <!-- deep-purple -->
      <stop offset="1" stop-color="#1E0B3C"/>
    </radialGradient>
    
    <linearGradient id="paint1_linear" x1="4" y1="16" x2="28" y2="16" gradientUnits="userSpaceOnUse">
      <stop offset="0" stop-color="#FF69B4"/> <!-- accent-pink -->
      <stop offset="0.5" stop-color="#8A2BE2"/> <!-- deep-purple -->
      <stop offset="1" stop-color="#1E90FF"/> <!-- vivid-blue -->
    </linearGradient>
    
    <radialGradient id="paint2_radial" cx="0" cy="0" r="1" gradientUnits="userSpaceOnUse" gradientTransform="translate(16 16) rotate(90) scale(5)">
      <stop offset="0" stop-color="#1E90FF"/> <!-- vivid-blue -->
      <stop offset="1" stop-color="#8A2BE2"/> <!-- deep-purple -->
    </radialGradient>
  </defs>
</svg>
